<?xml version="1.0" encoding="utf-8"?>
<!-- Generator: Adobe Illustrator 27.4.1, SVG Export Plug-In . SVG Version: 6.00 Build 0)  -->
<svg version="1.1" id="Layer_1" xmlns="http://www.w3.org/2000/svg" xmlns:xlink="http://www.w3.org/1999/xlink" x="0px" y="0px"
	 viewBox="0 0 1024 1024" style="enable-background:new 0 0 1024 1024;" xml:space="preserve">
<style type="text/css">
	.st0{fill:#FFFFFF;}
</style>
<path d="M332,233.3c0,0,50.1-79.9,179.4-75.4c129.3,4.5,176.7,76.3,197.7,117.8c0,0,56.1,114.6,51.9,183.3c-0.1,1.1-0.1,2.1-0.1,3.1
	c0.2,10.2,0.4,73.6-30.9,133.2c-34.1,65.1-82.5,151.5-86.7,168.9c-4.3,17.4-9,122.7-9,122.7s-1.1,18.1-17.7,25.4
	c-8.3,3.7-14.9,10.5-18.3,19.3c-5.8,14.9-18.3,35.3-43.3,41c-2.2,0.5-4.5,0.7-6.7,0.7h-71.7c-4.8,0-9.5-1.1-13.8-3.1
	c-10.3-5-28.3-16.2-35.6-37c-3.3-9.2-9.8-16.6-18.5-20.3c-8.8-3.7-18.6-11.2-21.4-26.4c-0.4-1.9-0.5-3.9-0.5-5.9
	c0-14.9-0.1-91.1-4.6-114.7c-5-26.2-44.7-116.9-86.9-197.9S261.3,356.4,332,233.3z"/>
<path d="M168.6,191.5l77.2,70.1c0.6,0.6,1.4,1,2.2,1.3c2.3,0.9,7.2,2.1,12.6-0.4c0.4-0.2,0.8-0.4,1.2-0.7c2.1-1.6,7.8-6.9,3.9-16.6
	c-0.4-1-1-1.9-1.8-2.6l-78.4-72.9c-0.2-0.2-0.5-0.4-0.7-0.6c-1.9-1.3-9.4-5.9-16.8-2C167.9,167.2,151.3,176,168.6,191.5z"/>
<path d="M147.2,276.4l91.6,28.5c0.1,0,0.2,0.1,0.2,0.1c1.2,0.7,10.6,6.5,7.4,18.1c0,0,0,0,0,0.1c-0.2,0.7-4,12.1-24.3,6.7
	l-85.7-27.4c-4-1.3-7.3-4.3-8.9-8.3c-1.2-3.2-1.4-7.4,1.7-11.8c0,0,5.1-9.2,17.9-6.1C147.1,276.4,147.1,276.4,147.2,276.4z"/>
<path d="M276,124.5c-0.3,0-0.5,0.1-0.8,0.2c-8.3,1.9-12.3,11.8-8,19.5c1.2,2.2,3,4.6,5.3,6.9l29.7,26.2c1.8,1.6,4,2.6,6.4,3
	c1.4,0.2,3.1,0.3,4.8,0.2c5.5-0.4,10.1-4.7,11.2-10.4c0.7-3.4,0.4-7.5-2.7-11.2c-3.7-4.4-27.9-25.7-31.9-29.2
	c-0.5-0.4-0.9-0.8-1.4-1.1c-1.4-1-4.6-2.8-7.6-3.7C279.3,124.2,277.6,124.2,276,124.5z"/>
<path d="M466.4,102.8c2-5.7,8-19.7,20.5-24.5c2.2-0.9,4.7-1,7-0.5c4.2,1,10.4,4.1,9.9,13.5c-0.1,2.1-0.7,4.2-1.8,6
	c-3.6,6.2-13.9,23.1-20.2,23.7c-7.7,0.7-15.4,0.7-16.4-12C465.4,106.9,465.7,104.7,466.4,102.8z"/>
<path d="M580.5,113.8c0,0,1.3-14.7,39.9-32.7c3.8-1.8,8.3-1.8,12.1,0.2c4.8,2.6,9.4,7.7,4.6,17.7c-6.5,13.5-28.9,25.2-38.7,29.8
	c-4.6,2.2-10,1.7-14-1.4C581.2,125,578.9,120.8,580.5,113.8z"/>
<path d="M673.4,161.1c4.1-6.2,14.9-20.1,30.7-24.3c2.8-0.7,5.7-0.7,8.3,0.5c3.6,1.7,7.6,5.4,5.6,13.8c0,0-1.2,12.9-25.5,26.6
	c-1.7,1-3.6,1.5-5.5,1.7c-5.1,0.3-14.7-0.3-16-9.1C670.7,167.1,671.6,163.8,673.4,161.1z"/>
<path d="M723.2,190.2c3.6-8,15.1-23.2,51.2-41.4c1.8-0.9,3.9-1.4,5.9-1.4c5.1,0.1,13.9,1.5,13.9,10.5c0,4.2-2.1,8.1-5.3,10.7
	L741.8,206c-2.5,2-5.5,3-8.5,2.9c-3.6-0.2-7.8-1.7-10.2-7.1C721.4,198,721.6,193.8,723.2,190.2z"/>
<path d="M746.7,248.8c8.2-5.6,33.8-18.5,92.1-14.8c2.3,0.1,4.6,0.9,6.5,2.4c2.9,2.3,5.6,6.8,2.8,15c-0.3,0.7-0.5,1.5-0.6,2.3
	c-0.3,1.7-2.1,5.8-13.9,7c-0.3,0-0.6,0.1-1,0.1c-5,0.1-49.6,1.6-72.8,10.7c-1.5,0.6-3,0.8-4.6,0.8c-6-0.2-18.8-2.3-13-17.6
	C743,252.2,744.7,250.2,746.7,248.8z"/>
<path d="M786.9,343.8c22.3-0.2,100.3,1.3,151.8,32.1c2.8,1.7,5.1,4.1,6.5,7.1c2.6,5.4,4.2,13.7-7.4,17.6c-2.1,0.7-4.2,1-6.4,0.8
	c-2.3-0.2-5.7-0.9-9.5-2.8c0,0-44-24.3-135.1-27.9c-3.5-0.1-6.8-1.4-9.6-3.6c-3.9-3.3-7.9-8.8-3.7-15.7
	C776.3,346.6,781.5,343.9,786.9,343.8z"/>
<path d="M809.1,481.5l88.3,45.1c0,0,19.1,27.2-13.9,23.1c0,0-86.9-36.7-92.8-47.6c0,0-9.2-19.3,6.1-22.5
	C800.9,478.8,805.3,479.6,809.1,481.5z"/>
<path d="M759.9,612.3c1.3-0.2,2.6-0.2,3.9,0c3.4,0.4,10.2,2,12,7.4l37.5,71.8c1.3,2.5,1.9,5.4,1.7,8.2c-0.4,5.1-2.3,12.1-10.2,12.4
	c-5,0.2-9.7-2.8-12.2-7.3l-40.4-72.4c-2.2-3.9-2.6-8.6-1-12.7C752.5,616.3,755,613.2,759.9,612.3z"/>
<path d="M130.3,367.2l100.9,8.4c3.3,0.3,6.4,1.5,8.9,3.6c4.7,3.8,10.2,10.5,3.8,17.8c-3.3,3.8-8.2,5.7-13.2,5.3L128,395.5
	c-5.3-0.4-10.2-3.3-13.1-8c-3.5-5.8-4.8-13.6,7.5-19C124.9,367.4,127.6,367,130.3,367.2z"/>
<path d="M168.5,508l57.7-55.6c0,0,0,0,0,0c0,0,13.3-4.9,18.1,5.6c0,0,0,0,0,0c0,0,4.7,10.8-3.4,17.2L193.5,522c0,0,0,0,0,0
	c0,0-9.4,12.8-21.2,10c0,0-6.3-1.1-8.3-8.3C162.5,518,164.4,511.9,168.5,508z"/>
<path d="M267.8,616.7c-1.4,1.3-2.5,2.9-3.2,4.7c-3.8,9.7-18.1,47.9-15,66.6c0,0,0.2,9,7,12.4c2.7,1.4,5.9,1.3,8.8,0.3
	c3.7-1.4,8.9-4.8,10.7-13.1c0,0,6.9-40.3,11.9-53c0.2-0.4,0.4-0.8,0.6-1.2c0.8-1.5,3-6.8-0.9-14c-2.5-4.6-7.4-7.3-12.4-6.3
	C272.9,613.6,270.2,614.6,267.8,616.7z"/>
<path class="st0" d="M404.2,758.8c0,0-15.1-68.4-55.2-144c0,0-70.9-103.2-49.9-207.1c0,0,16-113.1,54.3-154.8s109.5-96.1,249.1-47.1
	c0,0,41.2,21,56.7,43.2c0,0,84.2,109.4,73.9,242.9c0,0-1.7,32.6-11.5,58.4c0,0-21.2,51.6-68.7,135c0,0-36.6,61.3-36.6,73.6H404.2z"
	/>
<path d="M546.2,533.6c0,0-88,22.1-90,93.3c0,0-5.6,45.1,34.9,59.7c0,0,79.1,32.5,114.9-20.1c0,0,24-38.3,8.9-92.6
	C614.9,574,608.1,526.5,546.2,533.6z"/>
<path class="st0" d="M490.1,666.6h94.8c1.4,0,2.3-1.6,1.7-2.9c-3.3-6.5-12.7-22.3-29.4-31.6c0,0-16.1-8.8-37.5-3.3
	c-0.1,0-0.2,0.1-0.3,0.1c-1.6,0.7-14.2,6.7-19.9,14.2c0,0,0,0.1-0.1,0.1c-0.6,0.8-7.7,11-11,20.9
	C487.9,665.3,488.8,666.6,490.1,666.6z"/>
<path class="st0" d="M449.3,916.8c0,0,5.9,24.3,30.1,29.5h64.7c0,0,29.7-7.8,29.2-29.5H449.3z"/>
<path class="st0" d="M412.6,818.1c-0.5-0.6-1-1.2-1.4-1.9c-0.7-1.1-1-2.3-1-3.6v-22.4c0-3.8,2.9-6.8,6.5-6.8h187
	c3.6,0,6.5,3,6.5,6.8V814c0,0.8-0.1,1.7-0.4,2.5c-0.8,2.3-3,6.5-7.3,6.6H424.6C420.1,823.1,415.6,821.4,412.6,818.1z"/>
<path class="st0" d="M412.6,884.7c-0.5-0.6-1-1.3-1.4-2c-0.7-1.1-1-2.5-1-3.8v-24.1c0-4,2.9-7.3,6.5-7.3h187c3.6,0,6.5,3.3,6.5,7.3
	v25.5c0,0.9-0.1,1.8-0.4,2.7c-0.8,2.4-3,7-7.3,7.1H424.6C420.1,890,415.6,888.2,412.6,884.7z"/>
<ellipse cx="481.1" cy="393.7" rx="20.3" ry="21.3"/>
<ellipse cx="561.7" cy="394.1" rx="20.3" ry="21.3"/>
<path d="M428.2,345.7c4.1,0.4,8.2-1.3,11-4.3c4.5-4.9,14-13.6,23.6-13.8c0,0,10.5-0.4,18.4,3.5c0,0,0,0,0,0c0,0,25,3.8,13.2-20.4
	c0,0-2.9-7-25.7-9.6c0,0,0,0,0,0c0,0-28.1-1.4-38.8,12.1c-10.8,13.6-10.5,17.7-10.5,17.7S417.3,344.6,428.2,345.7z"/>
<path d="M556.7,333.4c4.8-2.1,14.9-5.7,25.6-5c1.2,0.1,2.3,0.4,3.4,0.8c3.6,1.5,11.6,5.5,18,13.6c2.1,2.6,5.1,4.2,8.4,4.4
	c0.8,0,1.7,0,2.7-0.2c2.9-0.5,5.6-2.1,7.4-4.5c1.8-2.3,3.6-5.9,3.8-10.9c0,0,0.8-6.8-9-14.7c0,0-10.3-8.5-25.7-15.3
	c-1-0.4-2-0.6-3.1-0.8c-5.1-1.2-20.8-2.3-31.7,2.6c0,0-8,3.7-13.3,10.1c-5.5,6.7-2.9,17.2,5,20.1c0.1,0,0.2,0.1,0.3,0.1
	C551.2,334.7,554.1,334.5,556.7,333.4z"/>
<path d="M496,467.1c3.2,2.1,4.9,6.1,5.6,10c0.7,3.8,3.2,9.2,11.6,11.2c13.5,3.2,27.4-2.7,27.4-2.7s14.4-3.3,14.2,13.5
	c-0.2,12.9-19.4,17.5-19.4,17.5s-29.2,4.2-43-7.6c0,0-24.2-19.4-15.2-39C477.3,470.1,483.7,458.8,496,467.1z"/>
</svg>
